Coordinates
version=1
nRows=22
nColumns=21
inDegrees=yes

Units are S.I. units (second, meters, Newtons, ...)
If the header above contains a line with 'inDegrees', this indicates whether rotational values are in degrees (yes) or radians (no).

endheader
time	sternoclavicular_r2	sternoclavicular_r3	unrotscap_r3	unrotscap_r2	acromioclavicular_r2	acromioclavicular_r3	acromioclavicular_r1	unrothum_r1	unrothum_r3	unrothum_r2	elv_angle	shoulder_elev	shoulder1_r2	shoulder_rot	elbow_flexion	pro_sup	deviation	flexion	wrist_hand_r1	wrist_hand_r3
      5.05050505	     -4.90528184	      2.07764587	     -2.07764587	      4.90528184	     -0.99321979	      8.02685298	      3.60801517	     -3.60801517	     -8.02685298	      0.99321979	    -75.27758912	     20.26971422	     75.27758912	     13.03622139	     91.25872227	      0.00000000	      0.00000000	     -0.00000000	     -0.00000000	      0.00000000
      5.15151515	     -4.73258539	      2.00449981	     -2.00449981	      4.73258539	     -0.95825227	      7.74425780	      3.48099059	     -3.48099059	     -7.74425780	      0.95825227	    -75.03027596	     19.55609415	     75.03027596	     12.77710581	     88.76337892	      0.00000000	      0.00000000	     -0.00000000	     -0.00000000	      0.00000000
      5.25252525	     -4.54802575	      1.92632905	     -1.92632905	      4.54802575	     -0.92088270	      7.44225005	      3.34524018	     -3.34524018	     -7.44225005	      0.92088270	    -74.78267841	     18.79345270	     74.78267841	     12.52379842	     86.20745414	      0.00000000	      0.00000000	     -0.00000000	     -0.00000000	      0.00000000
      5.35353535	     -4.35124235	      1.84298089	     -1.84298089	      4.35124235	     -0.88103807	      7.12023973	      3.20049876	     -3.20049876	     -7.12023973	      0.88103807	    -74.53244639	     17.98030000	     74.53244639	     12.27005896	     83.59558282	      0.00000000	      0.00000000	     -0.00000000	     -0.00000000	      0.00000000
      5.45454545	     -4.14225371	      1.75446317	     -1.75446317	      4.14225371	     -0.83872212	      6.77825711	      3.04677992	     -3.04677992	     -6.77825711	      0.83872212	    -74.27906499	     17.11671248	     74.27906499	     12.01290988	     80.92734758	      0.00000000	      0.00000000	     -0.00000000	     -0.00000000	      0.00000000
      5.55555556	     -3.92102850	      1.66076261	     -1.66076261	      3.92102850	     -0.79392851	      6.41625097	      2.88406065	     -2.88406065	     -6.41625097	      0.79392851	    -74.02202554	     16.20256081	     74.02202554	     11.74891516	     78.20198762	      0.00000000	      0.00000000	     -0.00000000	     -0.00000000	      0.00000000
      5.65656566	     -3.68747117	      1.56183875	     -1.56183875	      3.68747117	     -0.74663790	      6.03406489	      2.71227064	     -2.71227064	     -6.03406489	      0.74663790	    -73.76086750	     15.23745001	     73.76086750	     11.47408195	     75.41837440	      0.00000000	      0.00000000	     -0.00000000	     -0.00000000	      0.00000000
      5.75757576	     -3.44140416	      1.45761638	     -1.45761638	      3.44140416	     -0.69681434	      5.63140837	      2.53127931	     -2.53127931	     -5.63140837	      0.69681434	    -73.49524691	     14.22064646	     73.49524691	     11.18367115	     72.57494470	      0.00000000	      0.00000000	     -0.00000000	     -0.00000000	      0.00000000
      5.85858586	     -3.18254736	      1.34797685	     -1.34797685	      3.18254736	     -0.64440110	      5.20782303	      2.34088061	     -2.34088061	     -5.20782303	      0.64440110	    -73.22507479	     13.15099265	     73.22507479	     10.87193691	     69.66962069	      0.00000000	      0.00000000	     -0.00000000	     -0.00000000	      0.00000000
      5.95959596	     -2.91049390	      1.23274785	     -1.23274785	      2.91049390	     -0.58931581	      4.76264309	      2.14077529	     -2.14077529	     -4.76264309	      0.58931581	    -72.95078263	     12.02680736	     72.95078263	     10.53176058	     66.69972486	      0.00000000	      0.00000000	     -0.00000000	     -0.00000000	      0.00000000
      6.06060606	     -2.62469658	      1.11169759	     -1.11169759	      2.62469658	     -0.53144767	      4.29497310	      1.93056085	     -1.93056085	     -4.29497310	      0.53144767	    -72.67381311	     10.84582931	     72.67381311	     10.15415321	     63.66199734	      0.00000000	      0.00000000	     -0.00000000	     -0.00000000	      0.00000000
      6.16161616	     -2.32441872	      0.98451407	     -0.98451407	      2.32441872	     -0.47064751	      3.80360762	      1.70969545	     -1.70969545	     -3.80360762	      0.47064751	    -72.39793213	      9.60501453	     72.39793213	      9.72747402	     60.55244579	      0.00000000	      0.00000000	     -0.00000000	     -0.00000000	      0.00000000
      6.26262626	     -2.00765578	      0.85034823	     -0.85034823	      2.00765578	     -0.40650946	      3.28526644	      1.47670465	     -1.47670465	     -3.28526644	      0.40650946	    -72.11486082	      8.29607967	     72.11486082	      9.23762653	     57.35399026	      0.00000000	      0.00000000	     -0.00000000	     -0.00000000	      0.00000000
      6.36363636	     -1.67409681	      0.70906840	     -0.70906840	      1.67409681	     -0.33897055	      2.73944076	      1.23135977	     -1.23135977	     -2.73944076	      0.33897055	    -71.83187566	      6.91773992	     71.83187566	      8.66992160	     54.07541930	      0.00000000	      0.00000000	     -0.00000000	     -0.00000000	      0.00000000
      6.46464646	     -1.32157173	      0.55975541	     -0.55975541	      1.32157173	     -0.26759139	      2.16257951	      0.97206460	     -0.97206460	     -2.16257951	      0.26759139	    -71.56551997	      5.46102797	     71.56551997	      7.99502126	     50.70380493	      0.00000000	      0.00000000	     -0.00000000	     -0.00000000	      0.00000000
      6.56565657	     -0.95099858	      0.40279811	     -0.40279811	      0.95099858	     -0.19255787	      1.55618495	      0.69949443	     -0.69949443	     -1.55618495	      0.19255787	    -71.35670172	      3.92973739	     71.35670172	      7.18144268	     47.25111330	      0.00000000	      0.00000000	     -0.00000000	     -0.00000000	      0.00000000
      6.66666667	     -0.55426915	      0.23476225	     -0.23476225	      0.55426915	     -0.11222823	      0.90698906	      0.40768534	     -0.40768534	     -0.90698906	      0.11222823	    -71.23046476	      2.29036325	     71.23046476	      6.17819096	     43.66357313	      0.00000000	      0.00000000	     -0.00000000	     -0.00000000	      0.00000000
      6.76767677	     -0.14716766	      0.06233327	     -0.06233327	      0.14716766	     -0.02979846	      0.24082065	      0.10824722	     -0.10824722	     -0.24082065	      0.02979846	    -71.15094457	      0.60812945	     71.15094457	      4.99585813	     40.05995536	      0.00000000	      0.00000000	     -0.00000000	     -0.00000000	      0.00000000
      6.86868687	     -0.01357109	      0.00574807	     -0.00574807	      0.01357109	     -0.00274787	      0.02220731	      0.00998203	     -0.00998203	     -0.02220731	      0.00274787	    -71.03732627	      0.05607875	     71.03732627	      4.46425228	     38.33730351	      0.00000000	      0.00000000	     -0.00000000	     -0.00000000	      0.00000000
      6.96969697	     -0.00607804	      0.00257437	     -0.00257437	      0.00607804	     -0.00123068	      0.00994592	      0.00447062	     -0.00447062	     -0.00994592	      0.00123068	    -71.47597266	      0.02511580	     71.47597266	      4.30654561	     37.51790170	      0.00000000	      0.00000000	     -0.00000000	     -0.00000000	      0.00000000
      7.07070707	     -0.00408088	      0.00172847	     -0.00172847	      0.00408088	     -0.00082630	      0.00667783	      0.00300164	     -0.00300164	     -0.00667783	      0.00082630	    -69.81691015	      0.01686312	     69.81691015	      4.16471533	     36.79030895	      0.00000000	      0.00000000	     -0.00000000	     -0.00000000	      0.00000000
      7.17171717	     -0.00327108	      0.00138548	     -0.00138548	      0.00327108	     -0.00066233	      0.00535270	      0.00240600	     -0.00240600	     -0.00535270	      0.00066233	    -67.58181617	      0.01351683	     67.58181617	      4.03418264	     36.12548620	      0.00000000	      0.00000000	     -0.00000000	     -0.00000000	      0.00000000
